<mxfile host="app.diagrams.net" modified="2024-05-16T11:44:01.300Z" agent="Mozilla/5.0 (Windows NT 10.0; Win64; x64) AppleWebKit/537.36 (KHTML, like Gecko) Chrome/124.0.0.0 Safari/537.36" etag="sffaQHMZ4wQyox6cms4k" version="24.4.2" type="google">
  <diagram name="Page-1" id="eoHFoJQbqqkSnLUJk-sT">
    <mxGraphModel grid="1" page="1" gridSize="10" guides="1" tooltips="1" connect="1" arrows="1" fold="1" pageScale="1" pageWidth="827" pageHeight="1169" math="0" shadow="0">
      <root>
        <mxCell id="0" />
        <mxCell id="1" parent="0" />
        <mxCell id="Wks_n7H0P1M0t23U8N3x-61" value="LOOP" style="shape=umlFrame;whiteSpace=wrap;html=1;pointerEvents=0;swimlaneFillColor=#E6FFCC;fillColor=#DBF2C2;strokeColor=#66CC00;width=40;height=20;fontSize=10;fontStyle=1;fontColor=#335f07;opacity=80;movable=1;resizable=1;rotatable=1;deletable=1;editable=1;locked=0;connectable=1;" vertex="1" parent="1">
          <mxGeometry x="120" y="1540" width="600" height="630" as="geometry" />
        </mxCell>
        <mxCell id="Wks_n7H0P1M0t23U8N3x-301" value="ALT" style="shape=umlFrame;whiteSpace=wrap;html=1;pointerEvents=0;swimlaneFillColor=#eccbc1;fillColor=#f8cecc;strokeColor=#d27874;width=50;height=20;fontSize=10;fontStyle=1;opacity=60;" vertex="1" parent="1">
          <mxGeometry x="140" y="1560" width="560" height="590" as="geometry" />
        </mxCell>
        <mxCell id="Wks_n7H0P1M0t23U8N3x-221" value="LOOP" style="shape=umlFrame;whiteSpace=wrap;html=1;pointerEvents=0;swimlaneFillColor=#E6FFCC;fillColor=#DBF2C2;strokeColor=#66CC00;width=40;height=20;fontSize=10;fontStyle=1;fontColor=#335f07;opacity=80;movable=0;resizable=0;rotatable=0;deletable=0;editable=0;locked=1;connectable=0;" vertex="1" parent="1">
          <mxGeometry x="120" y="490" width="600" height="1020" as="geometry" />
        </mxCell>
        <mxCell id="Wks_n7H0P1M0t23U8N3x-101" value="ALT" style="shape=umlFrame;whiteSpace=wrap;html=1;pointerEvents=0;swimlaneFillColor=#FFCCFF;fillColor=#e1d5e7;strokeColor=#9673a6;width=50;height=20;fontSize=10;fontStyle=1;opacity=60;movable=1;resizable=1;rotatable=1;deletable=1;editable=1;locked=0;connectable=1;" vertex="1" parent="1">
          <mxGeometry x="140" y="510" width="560" height="980" as="geometry" />
        </mxCell>
        <mxCell id="Wks_n7H0P1M0t23U8N3x-21" value="ALT" style="shape=umlFrame;whiteSpace=wrap;html=1;pointerEvents=0;swimlaneFillColor=#d7bbe2;fillColor=#e1d5e7;strokeColor=#A47DB5;width=50;height=20;fontSize=10;fontStyle=1;opacity=80;movable=0;resizable=0;rotatable=0;deletable=0;editable=0;locked=1;connectable=0;" vertex="1" parent="1">
          <mxGeometry x="150" y="190" width="540" height="280" as="geometry" />
        </mxCell>
        <mxCell id="7QjkbwkYLUTSWp5Ibt6S-1" value="Attore" style="shape=umlActor;verticalLabelPosition=bottom;verticalAlign=top;html=1;outlineConnect=0;" vertex="1" parent="1">
          <mxGeometry x="230" y="20" width="19.33" height="40" as="geometry" />
        </mxCell>
        <mxCell id="7QjkbwkYLUTSWp5Ibt6S-5" value="" style="endArrow=classic;html=1;rounded=0;" edge="1" parent="1">
          <mxGeometry width="50" height="50" relative="1" as="geometry">
            <mxPoint x="240" y="210" as="sourcePoint" />
            <mxPoint x="600" y="210" as="targetPoint" />
          </mxGeometry>
        </mxCell>
        <mxCell id="7QjkbwkYLUTSWp5Ibt6S-9" value="1. generaTabelloneTurni(servizio, evento)" style="edgeLabel;html=1;align=center;verticalAlign=middle;resizable=0;points=[];labelBackgroundColor=none;" connectable="0" vertex="1" parent="7QjkbwkYLUTSWp5Ibt6S-5">
          <mxGeometry x="-0.2843" y="1" relative="1" as="geometry">
            <mxPoint x="57" y="-9" as="offset" />
          </mxGeometry>
        </mxCell>
        <mxCell id="7QjkbwkYLUTSWp5Ibt6S-6" value="Sistema" style="shape=cube;whiteSpace=wrap;html=1;boundedLbl=1;backgroundOutline=1;darkOpacity=0.05;darkOpacity2=0.1;size=10;" vertex="1" parent="1">
          <mxGeometry x="570" y="30" width="70" height="35" as="geometry" />
        </mxCell>
        <mxCell id="Wks_n7H0P1M0t23U8N3x-7" value="" style="endArrow=none;dashed=1;html=1;dashPattern=1 3;strokeWidth=2;rounded=0;" edge="1" parent="1">
          <mxGeometry width="50" height="50" relative="1" as="geometry">
            <mxPoint x="240" y="330" as="sourcePoint" />
            <mxPoint x="600" y="330" as="targetPoint" />
          </mxGeometry>
        </mxCell>
        <mxCell id="Wks_n7H0P1M0t23U8N3x-8" value="" style="endArrow=classic;html=1;rounded=0;" edge="1" parent="1">
          <mxGeometry width="50" height="50" relative="1" as="geometry">
            <mxPoint x="240" y="349" as="sourcePoint" />
            <mxPoint x="600" y="349" as="targetPoint" />
          </mxGeometry>
        </mxCell>
        <mxCell id="Wks_n7H0P1M0t23U8N3x-9" value="1a. apriTabelloneTurni(servzio, evento)" style="edgeLabel;html=1;align=center;verticalAlign=middle;resizable=0;points=[];labelBackgroundColor=none;" connectable="0" vertex="1" parent="Wks_n7H0P1M0t23U8N3x-8">
          <mxGeometry x="-0.2843" y="1" relative="1" as="geometry">
            <mxPoint x="57" y="-9" as="offset" />
          </mxGeometry>
        </mxCell>
        <mxCell id="Wks_n7H0P1M0t23U8N3x-50" value="" style="group" connectable="0" vertex="1" parent="1">
          <mxGeometry x="180" y="230" width="480.00000000000034" height="81" as="geometry" />
        </mxCell>
        <mxCell id="Wks_n7H0P1M0t23U8N3x-52" value="" style="group" connectable="0" vertex="1" parent="Wks_n7H0P1M0t23U8N3x-50">
          <mxGeometry width="480.00000000000034" height="81" as="geometry" />
        </mxCell>
        <mxCell id="Wks_n7H0P1M0t23U8N3x-1" value="ALT" style="shape=umlFrame;whiteSpace=wrap;html=1;pointerEvents=0;swimlaneFillColor=#eccbc1;fillColor=#f8cecc;strokeColor=#d27874;width=50;height=20;fontSize=10;fontStyle=1;opacity=80;" vertex="1" parent="Wks_n7H0P1M0t23U8N3x-52">
          <mxGeometry width="480" height="80" as="geometry" />
        </mxCell>
        <mxCell id="Wks_n7H0P1M0t23U8N3x-2" value="" style="endArrow=classic;html=1;rounded=0;dashed=1;" edge="1" parent="Wks_n7H0P1M0t23U8N3x-52">
          <mxGeometry width="50" height="50" relative="1" as="geometry">
            <mxPoint x="420" y="20" as="sourcePoint" />
            <mxPoint x="60" y="20" as="targetPoint" />
          </mxGeometry>
        </mxCell>
        <mxCell id="Wks_n7H0P1M0t23U8N3x-3" value="tabellone turni generato" style="edgeLabel;html=1;align=center;verticalAlign=middle;resizable=0;points=[];labelBackgroundColor=none;" connectable="0" vertex="1" parent="Wks_n7H0P1M0t23U8N3x-2">
          <mxGeometry x="0.0241" y="-1" relative="1" as="geometry">
            <mxPoint y="-9" as="offset" />
          </mxGeometry>
        </mxCell>
        <mxCell id="Wks_n7H0P1M0t23U8N3x-4" value="" style="endArrow=none;dashed=1;html=1;dashPattern=1 3;strokeWidth=2;rounded=0;exitX=-0.004;exitY=0.377;exitDx=0;exitDy=0;exitPerimeter=0;entryX=0.996;entryY=0.377;entryDx=0;entryDy=0;entryPerimeter=0;fillColor=#f8cecc;strokeColor=#f71f18;" edge="1" parent="Wks_n7H0P1M0t23U8N3x-52">
          <mxGeometry width="50" height="50" relative="1" as="geometry">
            <mxPoint x="3.694822225952521e-13" y="40.32000000000005" as="sourcePoint" />
            <mxPoint x="480.00000000000034" y="40.32000000000005" as="targetPoint" />
          </mxGeometry>
        </mxCell>
        <mxCell id="Wks_n7H0P1M0t23U8N3x-5" value="" style="endArrow=classic;html=1;rounded=0;dashed=1;fillColor=#f8cecc;strokeColor=#f60c04;" edge="1" parent="Wks_n7H0P1M0t23U8N3x-52">
          <mxGeometry width="50" height="50" relative="1" as="geometry">
            <mxPoint x="420" y="60" as="sourcePoint" />
            <mxPoint x="60" y="60" as="targetPoint" />
          </mxGeometry>
        </mxCell>
        <mxCell id="Wks_n7H0P1M0t23U8N3x-6" value="(1-1a). 1a.1 evento non in carico" style="edgeLabel;html=1;align=center;verticalAlign=middle;resizable=0;points=[];labelBackgroundColor=none;fontColor=#FF0808;" connectable="0" vertex="1" parent="Wks_n7H0P1M0t23U8N3x-5">
          <mxGeometry x="0.0241" y="-1" relative="1" as="geometry">
            <mxPoint y="-9" as="offset" />
          </mxGeometry>
        </mxCell>
        <mxCell id="Wks_n7H0P1M0t23U8N3x-63" value="" style="shape=umlDestroy;html=1;fillColor=#f8cecc;strokeColor=#FF0808;" vertex="1" parent="Wks_n7H0P1M0t23U8N3x-52">
          <mxGeometry x="412" y="52" width="15" height="15" as="geometry" />
        </mxCell>
        <mxCell id="7QjkbwkYLUTSWp5Ibt6S-7" value="" style="endArrow=none;html=1;rounded=0;dashed=1;dashPattern=12 12;" edge="1" parent="1">
          <mxGeometry width="50" height="50" relative="1" as="geometry">
            <mxPoint x="600" y="472" as="sourcePoint" />
            <mxPoint x="600" y="80" as="targetPoint" />
          </mxGeometry>
        </mxCell>
        <mxCell id="Wks_n7H0P1M0t23U8N3x-10" value="ALT" style="shape=umlFrame;whiteSpace=wrap;html=1;pointerEvents=0;swimlaneFillColor=#eccbc1;fillColor=#f8cecc;strokeColor=#d27874;width=50;height=20;fontSize=10;fontStyle=1;opacity=80;" vertex="1" parent="1">
          <mxGeometry x="180" y="370" width="480" height="80" as="geometry" />
        </mxCell>
        <mxCell id="Wks_n7H0P1M0t23U8N3x-11" value="" style="endArrow=classic;html=1;rounded=0;dashed=1;" edge="1" parent="1">
          <mxGeometry width="50" height="50" relative="1" as="geometry">
            <mxPoint x="600" y="390" as="sourcePoint" />
            <mxPoint x="240" y="390" as="targetPoint" />
          </mxGeometry>
        </mxCell>
        <mxCell id="Wks_n7H0P1M0t23U8N3x-12" value="tabellone turni registrato" style="edgeLabel;html=1;align=center;verticalAlign=middle;resizable=0;points=[];labelBackgroundColor=none;" connectable="0" vertex="1" parent="Wks_n7H0P1M0t23U8N3x-11">
          <mxGeometry x="0.0241" y="-1" relative="1" as="geometry">
            <mxPoint y="-9" as="offset" />
          </mxGeometry>
        </mxCell>
        <mxCell id="Wks_n7H0P1M0t23U8N3x-13" value="" style="endArrow=none;dashed=1;html=1;dashPattern=1 3;strokeWidth=2;rounded=0;exitX=-0.004;exitY=0.377;exitDx=0;exitDy=0;exitPerimeter=0;entryX=0.996;entryY=0.377;entryDx=0;entryDy=0;entryPerimeter=0;fillColor=#f8cecc;strokeColor=#f71f18;" edge="1" parent="1">
          <mxGeometry width="50" height="50" relative="1" as="geometry">
            <mxPoint x="180.00000000000037" y="409.6400000000001" as="sourcePoint" />
            <mxPoint x="660.0000000000003" y="409.6400000000001" as="targetPoint" />
          </mxGeometry>
        </mxCell>
        <mxCell id="Wks_n7H0P1M0t23U8N3x-14" value="" style="endArrow=classic;html=1;rounded=0;dashed=1;fillColor=#f8cecc;strokeColor=#f60c04;" edge="1" parent="1">
          <mxGeometry width="50" height="50" relative="1" as="geometry">
            <mxPoint x="590" y="430" as="sourcePoint" />
            <mxPoint x="240" y="430" as="targetPoint" />
          </mxGeometry>
        </mxCell>
        <mxCell id="Wks_n7H0P1M0t23U8N3x-15" value="(1-1a). 1a.1 evento non in carico" style="edgeLabel;html=1;align=center;verticalAlign=middle;resizable=0;points=[];labelBackgroundColor=none;fontColor=#FF0808;" connectable="0" vertex="1" parent="Wks_n7H0P1M0t23U8N3x-14">
          <mxGeometry x="0.0241" y="-1" relative="1" as="geometry">
            <mxPoint y="-9" as="offset" />
          </mxGeometry>
        </mxCell>
        <mxCell id="Wks_n7H0P1M0t23U8N3x-19" value="" style="shape=umlDestroy;html=1;fillColor=#f8cecc;strokeColor=#FF0808;" vertex="1" parent="1">
          <mxGeometry x="592" y="422" width="15" height="15" as="geometry" />
        </mxCell>
        <mxCell id="Wks_n7H0P1M0t23U8N3x-18" value="" style="endArrow=none;html=1;rounded=0;dashed=1;dashPattern=12 12;" edge="1" parent="1" source="Wks_n7H0P1M0t23U8N3x-19">
          <mxGeometry width="50" height="50" relative="1" as="geometry">
            <mxPoint x="600" y="1813" as="sourcePoint" />
            <mxPoint x="600.1075268817208" y="320" as="targetPoint" />
          </mxGeometry>
        </mxCell>
        <mxCell id="Wks_n7H0P1M0t23U8N3x-95" value="OPT" style="shape=umlFrame;whiteSpace=wrap;html=1;pointerEvents=0;swimlaneFillColor=#dde9f8;fillColor=#dae8fc;strokeColor=#6c8ebf;width=50;height=20;fontSize=10;fontStyle=1;opacity=80;" vertex="1" parent="1">
          <mxGeometry x="180" y="110" width="480" height="60" as="geometry" />
        </mxCell>
        <mxCell id="Wks_n7H0P1M0t23U8N3x-96" value="" style="endArrow=classic;html=1;rounded=0;" edge="1" parent="1">
          <mxGeometry width="50" height="50" relative="1" as="geometry">
            <mxPoint x="240" y="130" as="sourcePoint" />
            <mxPoint x="600" y="130" as="targetPoint" />
          </mxGeometry>
        </mxCell>
        <mxCell id="Wks_n7H0P1M0t23U8N3x-97" value="0. consultaTabelloneTurni()" style="edgeLabel;html=1;align=center;verticalAlign=middle;resizable=0;points=[];labelBackgroundColor=none;" connectable="0" vertex="1" parent="Wks_n7H0P1M0t23U8N3x-96">
          <mxGeometry x="-0.2843" y="1" relative="1" as="geometry">
            <mxPoint x="57" y="-9" as="offset" />
          </mxGeometry>
        </mxCell>
        <mxCell id="Wks_n7H0P1M0t23U8N3x-98" value="" style="endArrow=classic;html=1;rounded=0;dashed=1;" edge="1" parent="1">
          <mxGeometry width="50" height="50" relative="1" as="geometry">
            <mxPoint x="600" y="150" as="sourcePoint" />
            <mxPoint x="240" y="150" as="targetPoint" />
          </mxGeometry>
        </mxCell>
        <mxCell id="Wks_n7H0P1M0t23U8N3x-99" value="ok" style="edgeLabel;html=1;align=center;verticalAlign=middle;resizable=0;points=[];labelBackgroundColor=none;" connectable="0" vertex="1" parent="Wks_n7H0P1M0t23U8N3x-98">
          <mxGeometry x="0.0241" y="-1" relative="1" as="geometry">
            <mxPoint y="-9" as="offset" />
          </mxGeometry>
        </mxCell>
        <mxCell id="Wks_n7H0P1M0t23U8N3x-102" value="ALT" style="shape=umlFrame;whiteSpace=wrap;html=1;pointerEvents=0;swimlaneFillColor=#eccbc1;fillColor=#f8cecc;strokeColor=#d27874;width=50;height=20;fontSize=10;fontStyle=1;opacity=60;" vertex="1" parent="1">
          <mxGeometry x="180" y="549.57" width="480" height="120.43" as="geometry" />
        </mxCell>
        <mxCell id="Wks_n7H0P1M0t23U8N3x-103" value="" style="endArrow=classic;html=1;rounded=0;" edge="1" parent="1">
          <mxGeometry width="50" height="50" relative="1" as="geometry">
            <mxPoint x="240" y="529.57" as="sourcePoint" />
            <mxPoint x="600" y="529.57" as="targetPoint" />
          </mxGeometry>
        </mxCell>
        <mxCell id="Wks_n7H0P1M0t23U8N3x-104" value="2. generaTurnoCucina(durata,luogo?,scedenza?,dataSvolg?,dataFine?)" style="edgeLabel;html=1;align=center;verticalAlign=middle;resizable=0;points=[];labelBackgroundColor=none;fontSize=10;" connectable="0" vertex="1" parent="Wks_n7H0P1M0t23U8N3x-103">
          <mxGeometry x="-0.2843" y="1" relative="1" as="geometry">
            <mxPoint x="57" y="-9" as="offset" />
          </mxGeometry>
        </mxCell>
        <mxCell id="Wks_n7H0P1M0t23U8N3x-105" value="" style="endArrow=classic;html=1;rounded=0;dashed=1;fillColor=#f8cecc;strokeColor=#f60c04;" edge="1" parent="1">
          <mxGeometry width="50" height="50" relative="1" as="geometry">
            <mxPoint x="600" y="609.57" as="sourcePoint" />
            <mxPoint x="240" y="609.57" as="targetPoint" />
          </mxGeometry>
        </mxCell>
        <mxCell id="Wks_n7H0P1M0t23U8N3x-106" value="2.1a. 1 cucina specificata già occupata" style="edgeLabel;html=1;align=center;verticalAlign=middle;resizable=0;points=[];labelBackgroundColor=none;fontColor=#FF0808;" connectable="0" vertex="1" parent="Wks_n7H0P1M0t23U8N3x-105">
          <mxGeometry x="0.0241" y="-1" relative="1" as="geometry">
            <mxPoint y="-9" as="offset" />
          </mxGeometry>
        </mxCell>
        <mxCell id="Wks_n7H0P1M0t23U8N3x-107" value="" style="endArrow=classic;html=1;rounded=0;dashed=1;" edge="1" parent="1">
          <mxGeometry width="50" height="50" relative="1" as="geometry">
            <mxPoint x="600" y="569.57" as="sourcePoint" />
            <mxPoint x="240" y="569.57" as="targetPoint" />
          </mxGeometry>
        </mxCell>
        <mxCell id="Wks_n7H0P1M0t23U8N3x-108" value="turno di cucina generato" style="edgeLabel;html=1;align=center;verticalAlign=middle;resizable=0;points=[];labelBackgroundColor=none;" connectable="0" vertex="1" parent="Wks_n7H0P1M0t23U8N3x-107">
          <mxGeometry x="0.0241" y="-1" relative="1" as="geometry">
            <mxPoint y="-9" as="offset" />
          </mxGeometry>
        </mxCell>
        <mxCell id="Wks_n7H0P1M0t23U8N3x-109" value="" style="endArrow=none;dashed=1;html=1;dashPattern=1 3;strokeWidth=2;rounded=0;exitX=-0.004;exitY=0.377;exitDx=0;exitDy=0;exitPerimeter=0;entryX=0.996;entryY=0.377;entryDx=0;entryDy=0;entryPerimeter=0;fillColor=#f8cecc;strokeColor=#f71f18;" edge="1" parent="1">
          <mxGeometry width="50" height="50" relative="1" as="geometry">
            <mxPoint x="180.00000000000037" y="589.1700000000002" as="sourcePoint" />
            <mxPoint x="660.0000000000003" y="589.1700000000002" as="targetPoint" />
          </mxGeometry>
        </mxCell>
        <mxCell id="Wks_n7H0P1M0t23U8N3x-110" value="" style="endArrow=none;dashed=1;html=1;dashPattern=1 3;strokeWidth=2;rounded=0;exitX=-0.004;exitY=0.377;exitDx=0;exitDy=0;exitPerimeter=0;entryX=0.996;entryY=0.377;entryDx=0;entryDy=0;entryPerimeter=0;fillColor=#f8cecc;strokeColor=#f71f18;" edge="1" parent="1">
          <mxGeometry width="50" height="50" relative="1" as="geometry">
            <mxPoint x="180.00000000000037" y="629.5700000000003" as="sourcePoint" />
            <mxPoint x="660.0000000000003" y="629.5700000000003" as="targetPoint" />
          </mxGeometry>
        </mxCell>
        <mxCell id="Wks_n7H0P1M0t23U8N3x-111" value="" style="endArrow=classic;html=1;rounded=0;dashed=1;fillColor=#f8cecc;strokeColor=#f60c04;" edge="1" parent="1">
          <mxGeometry width="50" height="50" relative="1" as="geometry">
            <mxPoint x="600" y="649.57" as="sourcePoint" />
            <mxPoint x="240" y="649.57" as="targetPoint" />
          </mxGeometry>
        </mxCell>
        <mxCell id="Wks_n7H0P1M0t23U8N3x-112" value="2.1b. 1 scadenza maggiore del tempo rimanente" style="edgeLabel;html=1;align=center;verticalAlign=middle;resizable=0;points=[];labelBackgroundColor=none;fontColor=#FF0808;" connectable="0" vertex="1" parent="Wks_n7H0P1M0t23U8N3x-111">
          <mxGeometry x="0.0241" y="-1" relative="1" as="geometry">
            <mxPoint y="-9" as="offset" />
          </mxGeometry>
        </mxCell>
        <mxCell id="Wks_n7H0P1M0t23U8N3x-126" value="" style="shape=umlDestroy;html=1;fillColor=#f8cecc;strokeColor=#FF0808;" vertex="1" parent="1">
          <mxGeometry x="592" y="599.57" width="15" height="15" as="geometry" />
        </mxCell>
        <mxCell id="Wks_n7H0P1M0t23U8N3x-128" value="" style="shape=umlDestroy;html=1;fillColor=#f8cecc;strokeColor=#FF0808;" vertex="1" parent="1">
          <mxGeometry x="592" y="639.57" width="15" height="15" as="geometry" />
        </mxCell>
        <mxCell id="Wks_n7H0P1M0t23U8N3x-167" value="ALT" style="shape=umlFrame;whiteSpace=wrap;html=1;pointerEvents=0;swimlaneFillColor=#eccbc1;fillColor=#f8cecc;strokeColor=#d27874;width=50;height=20;fontSize=10;fontStyle=1;opacity=60;movable=0;resizable=0;rotatable=0;deletable=0;editable=0;locked=1;connectable=0;" vertex="1" parent="1">
          <mxGeometry x="160" y="709.57" width="520" height="760.43" as="geometry" />
        </mxCell>
        <mxCell id="Wks_n7H0P1M0t23U8N3x-130" value="ALT" style="shape=umlFrame;whiteSpace=wrap;html=1;pointerEvents=0;swimlaneFillColor=#eccbc1;fillColor=#f8cecc;strokeColor=#d27874;width=50;height=20;fontSize=10;fontStyle=1;opacity=60;" vertex="1" parent="1">
          <mxGeometry x="180" y="850" width="480" height="160" as="geometry" />
        </mxCell>
        <mxCell id="Wks_n7H0P1M0t23U8N3x-133" value="" style="endArrow=classic;html=1;rounded=0;dashed=1;fillColor=#f8cecc;strokeColor=#f60c04;" edge="1" parent="1">
          <mxGeometry width="50" height="50" relative="1" as="geometry">
            <mxPoint x="600" y="910" as="sourcePoint" />
            <mxPoint x="240" y="910" as="targetPoint" />
          </mxGeometry>
        </mxCell>
        <mxCell id="Wks_n7H0P1M0t23U8N3x-134" value="(2a.2). 1a 1 turno non modificabile per disponibilità" style="edgeLabel;html=1;align=center;verticalAlign=middle;resizable=0;points=[];labelBackgroundColor=none;fontColor=#FF0808;" connectable="0" vertex="1" parent="Wks_n7H0P1M0t23U8N3x-133">
          <mxGeometry x="0.0241" y="-1" relative="1" as="geometry">
            <mxPoint y="-9" as="offset" />
          </mxGeometry>
        </mxCell>
        <mxCell id="Wks_n7H0P1M0t23U8N3x-135" value="" style="endArrow=classic;html=1;rounded=0;dashed=1;" edge="1" parent="1">
          <mxGeometry width="50" height="50" relative="1" as="geometry">
            <mxPoint x="600" y="870" as="sourcePoint" />
            <mxPoint x="240" y="870" as="targetPoint" />
          </mxGeometry>
        </mxCell>
        <mxCell id="Wks_n7H0P1M0t23U8N3x-136" value="info aggiornate" style="edgeLabel;html=1;align=center;verticalAlign=middle;resizable=0;points=[];labelBackgroundColor=none;" connectable="0" vertex="1" parent="Wks_n7H0P1M0t23U8N3x-135">
          <mxGeometry x="0.0241" y="-1" relative="1" as="geometry">
            <mxPoint y="-9" as="offset" />
          </mxGeometry>
        </mxCell>
        <mxCell id="Wks_n7H0P1M0t23U8N3x-137" value="" style="endArrow=none;dashed=1;html=1;dashPattern=1 3;strokeWidth=2;rounded=0;exitX=-0.004;exitY=0.377;exitDx=0;exitDy=0;exitPerimeter=0;entryX=0.996;entryY=0.377;entryDx=0;entryDy=0;entryPerimeter=0;fillColor=#f8cecc;strokeColor=#f71f18;" edge="1" parent="1">
          <mxGeometry width="50" height="50" relative="1" as="geometry">
            <mxPoint x="180.00000000000037" y="889.6000000000001" as="sourcePoint" />
            <mxPoint x="660.0000000000003" y="889.6000000000001" as="targetPoint" />
          </mxGeometry>
        </mxCell>
        <mxCell id="Wks_n7H0P1M0t23U8N3x-138" value="" style="endArrow=none;dashed=1;html=1;dashPattern=1 3;strokeWidth=2;rounded=0;exitX=-0.004;exitY=0.377;exitDx=0;exitDy=0;exitPerimeter=0;entryX=0.996;entryY=0.377;entryDx=0;entryDy=0;entryPerimeter=0;fillColor=#f8cecc;strokeColor=#f71f18;" edge="1" parent="1">
          <mxGeometry width="50" height="50" relative="1" as="geometry">
            <mxPoint x="180.00000000000037" y="930.0000000000002" as="sourcePoint" />
            <mxPoint x="660.0000000000003" y="930.0000000000002" as="targetPoint" />
          </mxGeometry>
        </mxCell>
        <mxCell id="Wks_n7H0P1M0t23U8N3x-139" value="" style="endArrow=classic;html=1;rounded=0;dashed=1;fillColor=#f8cecc;strokeColor=#f60c04;" edge="1" parent="1">
          <mxGeometry width="50" height="50" relative="1" as="geometry">
            <mxPoint x="600" y="950" as="sourcePoint" />
            <mxPoint x="240" y="950" as="targetPoint" />
          </mxGeometry>
        </mxCell>
        <mxCell id="Wks_n7H0P1M0t23U8N3x-140" value="(2a.2). 1b 1 cucina specifacata già occupata" style="edgeLabel;html=1;align=center;verticalAlign=middle;resizable=0;points=[];labelBackgroundColor=none;fontColor=#FF0808;" connectable="0" vertex="1" parent="Wks_n7H0P1M0t23U8N3x-139">
          <mxGeometry x="0.0241" y="-1" relative="1" as="geometry">
            <mxPoint y="-9" as="offset" />
          </mxGeometry>
        </mxCell>
        <mxCell id="Wks_n7H0P1M0t23U8N3x-141" value="" style="endArrow=none;dashed=1;html=1;dashPattern=1 3;strokeWidth=2;rounded=0;exitX=-0.004;exitY=0.377;exitDx=0;exitDy=0;exitPerimeter=0;entryX=0.996;entryY=0.377;entryDx=0;entryDy=0;entryPerimeter=0;fillColor=#f8cecc;strokeColor=#f71f18;" edge="1" parent="1">
          <mxGeometry width="50" height="50" relative="1" as="geometry">
            <mxPoint x="180.00000000000037" y="970.0000000000002" as="sourcePoint" />
            <mxPoint x="660.0000000000003" y="970.0000000000002" as="targetPoint" />
          </mxGeometry>
        </mxCell>
        <mxCell id="Wks_n7H0P1M0t23U8N3x-142" value="" style="endArrow=classic;html=1;rounded=0;dashed=1;fillColor=#f8cecc;strokeColor=#f60c04;" edge="1" parent="1">
          <mxGeometry width="50" height="50" relative="1" as="geometry">
            <mxPoint x="600" y="990" as="sourcePoint" />
            <mxPoint x="240" y="990" as="targetPoint" />
          </mxGeometry>
        </mxCell>
        <mxCell id="Wks_n7H0P1M0t23U8N3x-143" value="(2a.2). 1c.1 scedenza maggiore del tempo rimanente" style="edgeLabel;html=1;align=center;verticalAlign=middle;resizable=0;points=[];labelBackgroundColor=none;fontColor=#FF0808;" connectable="0" vertex="1" parent="Wks_n7H0P1M0t23U8N3x-142">
          <mxGeometry x="0.0241" y="-1" relative="1" as="geometry">
            <mxPoint y="-9" as="offset" />
          </mxGeometry>
        </mxCell>
        <mxCell id="Wks_n7H0P1M0t23U8N3x-144" value="" style="endArrow=none;dashed=1;html=1;dashPattern=1 3;strokeWidth=2;rounded=0;" edge="1" parent="1">
          <mxGeometry width="50" height="50" relative="1" as="geometry">
            <mxPoint x="240" y="689.57" as="sourcePoint" />
            <mxPoint x="600" y="689.57" as="targetPoint" />
          </mxGeometry>
        </mxCell>
        <mxCell id="Wks_n7H0P1M0t23U8N3x-178" value="OPT" style="shape=umlFrame;whiteSpace=wrap;html=1;pointerEvents=0;swimlaneFillColor=#dde9f8;fillColor=#dae8fc;strokeColor=#6c8ebf;width=50;height=20;fontSize=10;fontStyle=1;opacity=80;" vertex="1" parent="1">
          <mxGeometry x="180" y="110" width="480" height="60" as="geometry" />
        </mxCell>
        <mxCell id="Wks_n7H0P1M0t23U8N3x-179" value="" style="endArrow=classic;html=1;rounded=0;" edge="1" parent="1">
          <mxGeometry width="50" height="50" relative="1" as="geometry">
            <mxPoint x="240" y="130" as="sourcePoint" />
            <mxPoint x="600" y="130" as="targetPoint" />
          </mxGeometry>
        </mxCell>
        <mxCell id="Wks_n7H0P1M0t23U8N3x-180" value="0. consultaTabelloneTurni()" style="edgeLabel;html=1;align=center;verticalAlign=middle;resizable=0;points=[];labelBackgroundColor=none;" connectable="0" vertex="1" parent="Wks_n7H0P1M0t23U8N3x-179">
          <mxGeometry x="-0.2843" y="1" relative="1" as="geometry">
            <mxPoint x="57" y="-9" as="offset" />
          </mxGeometry>
        </mxCell>
        <mxCell id="Wks_n7H0P1M0t23U8N3x-181" value="" style="endArrow=classic;html=1;rounded=0;dashed=1;" edge="1" parent="1">
          <mxGeometry width="50" height="50" relative="1" as="geometry">
            <mxPoint x="600" y="150" as="sourcePoint" />
            <mxPoint x="240" y="150" as="targetPoint" />
          </mxGeometry>
        </mxCell>
        <mxCell id="Wks_n7H0P1M0t23U8N3x-182" value="ok" style="edgeLabel;html=1;align=center;verticalAlign=middle;resizable=0;points=[];labelBackgroundColor=none;" connectable="0" vertex="1" parent="Wks_n7H0P1M0t23U8N3x-181">
          <mxGeometry x="0.0241" y="-1" relative="1" as="geometry">
            <mxPoint y="-9" as="offset" />
          </mxGeometry>
        </mxCell>
        <mxCell id="Wks_n7H0P1M0t23U8N3x-183" value="LOOP" style="shape=umlFrame;whiteSpace=wrap;html=1;pointerEvents=0;swimlaneFillColor=#dde9f8;fillColor=#dae8fc;strokeColor=#6c8ebf;width=50;height=20;fontSize=10;fontStyle=1;opacity=80;" vertex="1" parent="1">
          <mxGeometry x="180" y="729.57" width="480" height="60" as="geometry" />
        </mxCell>
        <mxCell id="Wks_n7H0P1M0t23U8N3x-184" value="" style="endArrow=classic;html=1;rounded=0;" edge="1" parent="1">
          <mxGeometry width="50" height="50" relative="1" as="geometry">
            <mxPoint x="240" y="749.57" as="sourcePoint" />
            <mxPoint x="600" y="749.57" as="targetPoint" />
          </mxGeometry>
        </mxCell>
        <mxCell id="Wks_n7H0P1M0t23U8N3x-185" value="2a.1 selezioneTurno(turno)" style="edgeLabel;html=1;align=center;verticalAlign=middle;resizable=0;points=[];labelBackgroundColor=none;" connectable="0" vertex="1" parent="Wks_n7H0P1M0t23U8N3x-184">
          <mxGeometry x="-0.2843" y="1" relative="1" as="geometry">
            <mxPoint x="57" y="-9" as="offset" />
          </mxGeometry>
        </mxCell>
        <mxCell id="Wks_n7H0P1M0t23U8N3x-186" value="" style="endArrow=classic;html=1;rounded=0;dashed=1;" edge="1" parent="1">
          <mxGeometry width="50" height="50" relative="1" as="geometry">
            <mxPoint x="600" y="769.57" as="sourcePoint" />
            <mxPoint x="240" y="769.57" as="targetPoint" />
          </mxGeometry>
        </mxCell>
        <mxCell id="Wks_n7H0P1M0t23U8N3x-187" value="turno seòezionato" style="edgeLabel;html=1;align=center;verticalAlign=middle;resizable=0;points=[];labelBackgroundColor=none;" connectable="0" vertex="1" parent="Wks_n7H0P1M0t23U8N3x-186">
          <mxGeometry x="0.0241" y="-1" relative="1" as="geometry">
            <mxPoint y="-9" as="offset" />
          </mxGeometry>
        </mxCell>
        <mxCell id="Wks_n7H0P1M0t23U8N3x-188" value="" style="endArrow=classic;html=1;rounded=0;" edge="1" parent="1">
          <mxGeometry width="50" height="50" relative="1" as="geometry">
            <mxPoint x="240" y="830" as="sourcePoint" />
            <mxPoint x="600" y="830" as="targetPoint" />
          </mxGeometry>
        </mxCell>
        <mxCell id="Wks_n7H0P1M0t23U8N3x-189" value="2a.2 modificaIfno(durata?, luogo?, scadenza?, dataSvlog?, datafine?" style="edgeLabel;html=1;align=center;verticalAlign=middle;resizable=0;points=[];labelBackgroundColor=none;" connectable="0" vertex="1" parent="Wks_n7H0P1M0t23U8N3x-188">
          <mxGeometry x="-0.2843" y="1" relative="1" as="geometry">
            <mxPoint x="57" y="-9" as="offset" />
          </mxGeometry>
        </mxCell>
        <mxCell id="Wks_n7H0P1M0t23U8N3x-190" value="" style="endArrow=none;dashed=1;html=1;dashPattern=1 3;strokeWidth=2;rounded=0;" edge="1" parent="1">
          <mxGeometry width="50" height="50" relative="1" as="geometry">
            <mxPoint x="240" y="1030" as="sourcePoint" />
            <mxPoint x="600" y="1030" as="targetPoint" />
          </mxGeometry>
        </mxCell>
        <mxCell id="Wks_n7H0P1M0t23U8N3x-191" value="" style="endArrow=classic;html=1;rounded=0;" edge="1" parent="1">
          <mxGeometry width="50" height="50" relative="1" as="geometry">
            <mxPoint x="241" y="1050" as="sourcePoint" />
            <mxPoint x="601" y="1050" as="targetPoint" />
          </mxGeometry>
        </mxCell>
        <mxCell id="Wks_n7H0P1M0t23U8N3x-192" value="(2a.2) a.1 reggruppaTurniSelezionati()" style="edgeLabel;html=1;align=center;verticalAlign=middle;resizable=0;points=[];labelBackgroundColor=none;" connectable="0" vertex="1" parent="Wks_n7H0P1M0t23U8N3x-191">
          <mxGeometry x="-0.2843" y="1" relative="1" as="geometry">
            <mxPoint x="57" y="-9" as="offset" />
          </mxGeometry>
        </mxCell>
        <mxCell id="Wks_n7H0P1M0t23U8N3x-193" value="ALT" style="shape=umlFrame;whiteSpace=wrap;html=1;pointerEvents=0;swimlaneFillColor=#eccbc1;fillColor=#f8cecc;strokeColor=#d27874;width=50;height=20;fontSize=10;fontStyle=1;opacity=80;" vertex="1" parent="1">
          <mxGeometry x="180" y="1070" width="480" height="80" as="geometry" />
        </mxCell>
        <mxCell id="Wks_n7H0P1M0t23U8N3x-194" value="" style="endArrow=classic;html=1;rounded=0;dashed=1;" edge="1" parent="1">
          <mxGeometry width="50" height="50" relative="1" as="geometry">
            <mxPoint x="600" y="1090" as="sourcePoint" />
            <mxPoint x="240" y="1090" as="targetPoint" />
          </mxGeometry>
        </mxCell>
        <mxCell id="Wks_n7H0P1M0t23U8N3x-195" value="ok" style="edgeLabel;html=1;align=center;verticalAlign=middle;resizable=0;points=[];labelBackgroundColor=none;" connectable="0" vertex="1" parent="Wks_n7H0P1M0t23U8N3x-194">
          <mxGeometry x="0.0241" y="-1" relative="1" as="geometry">
            <mxPoint y="-9" as="offset" />
          </mxGeometry>
        </mxCell>
        <mxCell id="Wks_n7H0P1M0t23U8N3x-196" value="" style="endArrow=none;dashed=1;html=1;dashPattern=1 3;strokeWidth=2;rounded=0;exitX=-0.004;exitY=0.377;exitDx=0;exitDy=0;exitPerimeter=0;entryX=0.996;entryY=0.377;entryDx=0;entryDy=0;entryPerimeter=0;fillColor=#f8cecc;strokeColor=#f71f18;" edge="1" parent="1">
          <mxGeometry width="50" height="50" relative="1" as="geometry">
            <mxPoint x="180.00000000000037" y="1109.64" as="sourcePoint" />
            <mxPoint x="660.0000000000003" y="1109.64" as="targetPoint" />
          </mxGeometry>
        </mxCell>
        <mxCell id="Wks_n7H0P1M0t23U8N3x-197" value="" style="endArrow=classic;html=1;rounded=0;dashed=1;fillColor=#f8cecc;strokeColor=#f60c04;" edge="1" parent="1">
          <mxGeometry width="50" height="50" relative="1" as="geometry">
            <mxPoint x="590" y="1130" as="sourcePoint" />
            <mxPoint x="240" y="1130" as="targetPoint" />
          </mxGeometry>
        </mxCell>
        <mxCell id="Wks_n7H0P1M0t23U8N3x-198" value="(2a.2)a. 1a.1 turno già raggruppato" style="edgeLabel;html=1;align=center;verticalAlign=middle;resizable=0;points=[];labelBackgroundColor=none;fontColor=#FF0808;" connectable="0" vertex="1" parent="Wks_n7H0P1M0t23U8N3x-197">
          <mxGeometry x="0.0241" y="-1" relative="1" as="geometry">
            <mxPoint y="-9" as="offset" />
          </mxGeometry>
        </mxCell>
        <mxCell id="Wks_n7H0P1M0t23U8N3x-199" value="" style="shape=umlDestroy;html=1;fillColor=#f8cecc;strokeColor=#FF0808;" vertex="1" parent="1">
          <mxGeometry x="592" y="1122" width="15" height="15" as="geometry" />
        </mxCell>
        <mxCell id="Wks_n7H0P1M0t23U8N3x-200" value="" style="endArrow=none;dashed=1;html=1;dashPattern=1 3;strokeWidth=2;rounded=0;" edge="1" parent="1">
          <mxGeometry width="50" height="50" relative="1" as="geometry">
            <mxPoint x="241" y="1169" as="sourcePoint" />
            <mxPoint x="601" y="1169" as="targetPoint" />
          </mxGeometry>
        </mxCell>
        <mxCell id="Wks_n7H0P1M0t23U8N3x-201" value="" style="endArrow=classic;html=1;rounded=0;" edge="1" parent="1">
          <mxGeometry width="50" height="50" relative="1" as="geometry">
            <mxPoint x="241" y="1189" as="sourcePoint" />
            <mxPoint x="601" y="1189" as="targetPoint" />
          </mxGeometry>
        </mxCell>
        <mxCell id="Wks_n7H0P1M0t23U8N3x-202" value="(2a.2)b.1 eliminaTurniSelezionati()" style="edgeLabel;html=1;align=center;verticalAlign=middle;resizable=0;points=[];labelBackgroundColor=none;" connectable="0" vertex="1" parent="Wks_n7H0P1M0t23U8N3x-201">
          <mxGeometry x="-0.2843" y="1" relative="1" as="geometry">
            <mxPoint x="57" y="-9" as="offset" />
          </mxGeometry>
        </mxCell>
        <mxCell id="Wks_n7H0P1M0t23U8N3x-203" value="ALT" style="shape=umlFrame;whiteSpace=wrap;html=1;pointerEvents=0;swimlaneFillColor=#eccbc1;fillColor=#f8cecc;strokeColor=#d27874;width=50;height=20;fontSize=10;fontStyle=1;opacity=80;" vertex="1" parent="1">
          <mxGeometry x="180" y="1209" width="480" height="80" as="geometry" />
        </mxCell>
        <mxCell id="Wks_n7H0P1M0t23U8N3x-204" value="" style="endArrow=classic;html=1;rounded=0;dashed=1;" edge="1" parent="1">
          <mxGeometry width="50" height="50" relative="1" as="geometry">
            <mxPoint x="600" y="1229" as="sourcePoint" />
            <mxPoint x="240" y="1229" as="targetPoint" />
          </mxGeometry>
        </mxCell>
        <mxCell id="Wks_n7H0P1M0t23U8N3x-205" value="ok" style="edgeLabel;html=1;align=center;verticalAlign=middle;resizable=0;points=[];labelBackgroundColor=none;" connectable="0" vertex="1" parent="Wks_n7H0P1M0t23U8N3x-204">
          <mxGeometry x="0.0241" y="-1" relative="1" as="geometry">
            <mxPoint y="-9" as="offset" />
          </mxGeometry>
        </mxCell>
        <mxCell id="Wks_n7H0P1M0t23U8N3x-206" value="" style="endArrow=none;dashed=1;html=1;dashPattern=1 3;strokeWidth=2;rounded=0;exitX=-0.004;exitY=0.377;exitDx=0;exitDy=0;exitPerimeter=0;entryX=0.996;entryY=0.377;entryDx=0;entryDy=0;entryPerimeter=0;fillColor=#f8cecc;strokeColor=#f71f18;" edge="1" parent="1">
          <mxGeometry width="50" height="50" relative="1" as="geometry">
            <mxPoint x="180.00000000000037" y="1248.64" as="sourcePoint" />
            <mxPoint x="660.0000000000003" y="1248.64" as="targetPoint" />
          </mxGeometry>
        </mxCell>
        <mxCell id="Wks_n7H0P1M0t23U8N3x-207" value="" style="endArrow=classic;html=1;rounded=0;dashed=1;fillColor=#f8cecc;strokeColor=#f60c04;" edge="1" parent="1">
          <mxGeometry width="50" height="50" relative="1" as="geometry">
            <mxPoint x="590" y="1269" as="sourcePoint" />
            <mxPoint x="240" y="1269" as="targetPoint" />
          </mxGeometry>
        </mxCell>
        <mxCell id="Wks_n7H0P1M0t23U8N3x-208" value="(2a.2)a. 1a.1 turno non eliminabile per disponibilità" style="edgeLabel;html=1;align=center;verticalAlign=middle;resizable=0;points=[];labelBackgroundColor=none;fontColor=#FF0808;" connectable="0" vertex="1" parent="Wks_n7H0P1M0t23U8N3x-207">
          <mxGeometry x="0.0241" y="-1" relative="1" as="geometry">
            <mxPoint y="-9" as="offset" />
          </mxGeometry>
        </mxCell>
        <mxCell id="Wks_n7H0P1M0t23U8N3x-209" value="" style="shape=umlDestroy;html=1;fillColor=#f8cecc;strokeColor=#FF0808;" vertex="1" parent="1">
          <mxGeometry x="592" y="1261" width="15" height="15" as="geometry" />
        </mxCell>
        <mxCell id="Wks_n7H0P1M0t23U8N3x-210" value="LOOP" style="shape=umlFrame;whiteSpace=wrap;html=1;pointerEvents=0;swimlaneFillColor=#dde9f8;fillColor=#dae8fc;strokeColor=#6c8ebf;width=50;height=20;fontSize=10;fontStyle=1;opacity=80;" vertex="1" parent="1">
          <mxGeometry x="180" y="1329" width="480" height="60" as="geometry" />
        </mxCell>
        <mxCell id="Wks_n7H0P1M0t23U8N3x-211" value="" style="endArrow=classic;html=1;rounded=0;" edge="1" parent="1">
          <mxGeometry width="50" height="50" relative="1" as="geometry">
            <mxPoint x="240" y="1349" as="sourcePoint" />
            <mxPoint x="600" y="1349" as="targetPoint" />
          </mxGeometry>
        </mxCell>
        <mxCell id="Wks_n7H0P1M0t23U8N3x-212" value="2b1 selezionaRaggruppamento(raggruppamento)" style="edgeLabel;html=1;align=center;verticalAlign=middle;resizable=0;points=[];labelBackgroundColor=none;" connectable="0" vertex="1" parent="Wks_n7H0P1M0t23U8N3x-211">
          <mxGeometry x="-0.2843" y="1" relative="1" as="geometry">
            <mxPoint x="57" y="-9" as="offset" />
          </mxGeometry>
        </mxCell>
        <mxCell id="Wks_n7H0P1M0t23U8N3x-213" value="" style="endArrow=classic;html=1;rounded=0;dashed=1;" edge="1" parent="1">
          <mxGeometry width="50" height="50" relative="1" as="geometry">
            <mxPoint x="600" y="1369" as="sourcePoint" />
            <mxPoint x="240" y="1369" as="targetPoint" />
          </mxGeometry>
        </mxCell>
        <mxCell id="Wks_n7H0P1M0t23U8N3x-214" value="raggruppamento selezionato" style="edgeLabel;html=1;align=center;verticalAlign=middle;resizable=0;points=[];labelBackgroundColor=none;" connectable="0" vertex="1" parent="Wks_n7H0P1M0t23U8N3x-213">
          <mxGeometry x="0.0241" y="-1" relative="1" as="geometry">
            <mxPoint y="-9" as="offset" />
          </mxGeometry>
        </mxCell>
        <mxCell id="Wks_n7H0P1M0t23U8N3x-215" value="" style="endArrow=none;dashed=1;html=1;dashPattern=1 3;strokeWidth=2;rounded=0;" edge="1" parent="1">
          <mxGeometry width="50" height="50" relative="1" as="geometry">
            <mxPoint x="241" y="1309" as="sourcePoint" />
            <mxPoint x="601" y="1309" as="targetPoint" />
          </mxGeometry>
        </mxCell>
        <mxCell id="Wks_n7H0P1M0t23U8N3x-216" value="" style="endArrow=classic;html=1;rounded=0;" edge="1" parent="1">
          <mxGeometry width="50" height="50" relative="1" as="geometry">
            <mxPoint x="240" y="1429" as="sourcePoint" />
            <mxPoint x="600" y="1429" as="targetPoint" />
          </mxGeometry>
        </mxCell>
        <mxCell id="Wks_n7H0P1M0t23U8N3x-217" value="2b.2 sciogliRaggruppamentiSelezionati()" style="edgeLabel;html=1;align=center;verticalAlign=middle;resizable=0;points=[];labelBackgroundColor=none;" connectable="0" vertex="1" parent="Wks_n7H0P1M0t23U8N3x-216">
          <mxGeometry x="-0.2843" y="1" relative="1" as="geometry">
            <mxPoint x="57" y="-9" as="offset" />
          </mxGeometry>
        </mxCell>
        <mxCell id="Wks_n7H0P1M0t23U8N3x-218" value="" style="endArrow=classic;html=1;rounded=0;dashed=1;" edge="1" parent="1">
          <mxGeometry width="50" height="50" relative="1" as="geometry">
            <mxPoint x="600" y="1449" as="sourcePoint" />
            <mxPoint x="240" y="1449" as="targetPoint" />
          </mxGeometry>
        </mxCell>
        <mxCell id="Wks_n7H0P1M0t23U8N3x-219" value="ok" style="edgeLabel;html=1;align=center;verticalAlign=middle;resizable=0;points=[];labelBackgroundColor=none;" connectable="0" vertex="1" parent="Wks_n7H0P1M0t23U8N3x-218">
          <mxGeometry x="0.0241" y="-1" relative="1" as="geometry">
            <mxPoint y="-9" as="offset" />
          </mxGeometry>
        </mxCell>
        <mxCell id="Wks_n7H0P1M0t23U8N3x-236" value="ALT" style="shape=umlFrame;whiteSpace=wrap;html=1;pointerEvents=0;swimlaneFillColor=#eccbc1;fillColor=#f8cecc;strokeColor=#d27874;width=50;height=20;fontSize=10;fontStyle=1;opacity=60;" vertex="1" parent="1">
          <mxGeometry x="160" y="1800" width="520" height="330" as="geometry" />
        </mxCell>
        <mxCell id="Wks_n7H0P1M0t23U8N3x-237" value="" style="endArrow=classic;html=1;rounded=0;" edge="1" parent="1">
          <mxGeometry width="50" height="50" relative="1" as="geometry">
            <mxPoint x="240" y="1590" as="sourcePoint" />
            <mxPoint x="600" y="1590" as="targetPoint" />
          </mxGeometry>
        </mxCell>
        <mxCell id="Wks_n7H0P1M0t23U8N3x-238" value="3. generaTurnoServizio(durataPrep?, durataRig?, luogo?, scadenza?, dataFine?)" style="edgeLabel;html=1;align=center;verticalAlign=middle;resizable=0;points=[];labelBackgroundColor=none;fontSize=10;" connectable="0" vertex="1" parent="Wks_n7H0P1M0t23U8N3x-237">
          <mxGeometry x="-0.2843" y="1" relative="1" as="geometry">
            <mxPoint x="51" y="-9" as="offset" />
          </mxGeometry>
        </mxCell>
        <mxCell id="Wks_n7H0P1M0t23U8N3x-250" value="ALT" style="shape=umlFrame;whiteSpace=wrap;html=1;pointerEvents=0;swimlaneFillColor=#eccbc1;fillColor=#f8cecc;strokeColor=#d27874;width=50;height=20;fontSize=10;fontStyle=1;opacity=80;" vertex="1" parent="1">
          <mxGeometry x="180" y="1610" width="480" height="80" as="geometry" />
        </mxCell>
        <mxCell id="Wks_n7H0P1M0t23U8N3x-251" value="" style="endArrow=classic;html=1;rounded=0;dashed=1;" edge="1" parent="1">
          <mxGeometry width="50" height="50" relative="1" as="geometry">
            <mxPoint x="600" y="1630" as="sourcePoint" />
            <mxPoint x="240" y="1630" as="targetPoint" />
          </mxGeometry>
        </mxCell>
        <mxCell id="Wks_n7H0P1M0t23U8N3x-252" value="turno di servizio generato" style="edgeLabel;html=1;align=center;verticalAlign=middle;resizable=0;points=[];labelBackgroundColor=none;" connectable="0" vertex="1" parent="Wks_n7H0P1M0t23U8N3x-251">
          <mxGeometry x="0.0241" y="-1" relative="1" as="geometry">
            <mxPoint y="-9" as="offset" />
          </mxGeometry>
        </mxCell>
        <mxCell id="Wks_n7H0P1M0t23U8N3x-253" value="" style="endArrow=none;dashed=1;html=1;dashPattern=1 3;strokeWidth=2;rounded=0;exitX=-0.004;exitY=0.377;exitDx=0;exitDy=0;exitPerimeter=0;entryX=0.996;entryY=0.377;entryDx=0;entryDy=0;entryPerimeter=0;fillColor=#f8cecc;strokeColor=#f71f18;" edge="1" parent="1">
          <mxGeometry width="50" height="50" relative="1" as="geometry">
            <mxPoint x="180.00000000000037" y="1649.64" as="sourcePoint" />
            <mxPoint x="660.0000000000003" y="1649.64" as="targetPoint" />
          </mxGeometry>
        </mxCell>
        <mxCell id="Wks_n7H0P1M0t23U8N3x-254" value="" style="endArrow=classic;html=1;rounded=0;dashed=1;fillColor=#f8cecc;strokeColor=#f60c04;" edge="1" parent="1">
          <mxGeometry width="50" height="50" relative="1" as="geometry">
            <mxPoint x="590" y="1670" as="sourcePoint" />
            <mxPoint x="240" y="1670" as="targetPoint" />
          </mxGeometry>
        </mxCell>
        <mxCell id="Wks_n7H0P1M0t23U8N3x-255" value="3.1a.1 scedenza maggiore del tempo rimanente" style="edgeLabel;html=1;align=center;verticalAlign=middle;resizable=0;points=[];labelBackgroundColor=none;fontColor=#FF0808;" connectable="0" vertex="1" parent="Wks_n7H0P1M0t23U8N3x-254">
          <mxGeometry x="0.0241" y="-1" relative="1" as="geometry">
            <mxPoint y="-9" as="offset" />
          </mxGeometry>
        </mxCell>
        <mxCell id="Wks_n7H0P1M0t23U8N3x-256" value="" style="shape=umlDestroy;html=1;fillColor=#f8cecc;strokeColor=#FF0808;" vertex="1" parent="1">
          <mxGeometry x="592" y="1662" width="15" height="15" as="geometry" />
        </mxCell>
        <mxCell id="Wks_n7H0P1M0t23U8N3x-257" value="" style="endArrow=none;dashed=1;html=1;dashPattern=1 3;strokeWidth=2;rounded=0;" edge="1" parent="1">
          <mxGeometry width="50" height="50" relative="1" as="geometry">
            <mxPoint x="240" y="1710" as="sourcePoint" />
            <mxPoint x="600" y="1710" as="targetPoint" />
          </mxGeometry>
        </mxCell>
        <mxCell id="Wks_n7H0P1M0t23U8N3x-268" value="LOOP" style="shape=umlFrame;whiteSpace=wrap;html=1;pointerEvents=0;swimlaneFillColor=#dde9f8;fillColor=#dae8fc;strokeColor=#6c8ebf;width=50;height=20;fontSize=10;fontStyle=1;opacity=80;" vertex="1" parent="1">
          <mxGeometry x="180" y="1730" width="480" height="60" as="geometry" />
        </mxCell>
        <mxCell id="Wks_n7H0P1M0t23U8N3x-269" value="" style="endArrow=classic;html=1;rounded=0;" edge="1" parent="1">
          <mxGeometry width="50" height="50" relative="1" as="geometry">
            <mxPoint x="240" y="1750" as="sourcePoint" />
            <mxPoint x="600" y="1750" as="targetPoint" />
          </mxGeometry>
        </mxCell>
        <mxCell id="Wks_n7H0P1M0t23U8N3x-270" value="3a.1 selezionaTurno(turno)" style="edgeLabel;html=1;align=center;verticalAlign=middle;resizable=0;points=[];labelBackgroundColor=none;" connectable="0" vertex="1" parent="Wks_n7H0P1M0t23U8N3x-269">
          <mxGeometry x="-0.2843" y="1" relative="1" as="geometry">
            <mxPoint x="57" y="-9" as="offset" />
          </mxGeometry>
        </mxCell>
        <mxCell id="Wks_n7H0P1M0t23U8N3x-271" value="" style="endArrow=classic;html=1;rounded=0;dashed=1;" edge="1" parent="1">
          <mxGeometry width="50" height="50" relative="1" as="geometry">
            <mxPoint x="600" y="1770" as="sourcePoint" />
            <mxPoint x="240" y="1770" as="targetPoint" />
          </mxGeometry>
        </mxCell>
        <mxCell id="Wks_n7H0P1M0t23U8N3x-272" value="turno selezionato" style="edgeLabel;html=1;align=center;verticalAlign=middle;resizable=0;points=[];labelBackgroundColor=none;" connectable="0" vertex="1" parent="Wks_n7H0P1M0t23U8N3x-271">
          <mxGeometry x="0.0241" y="-1" relative="1" as="geometry">
            <mxPoint y="-9" as="offset" />
          </mxGeometry>
        </mxCell>
        <mxCell id="Wks_n7H0P1M0t23U8N3x-273" value="" style="endArrow=classic;html=1;rounded=0;" edge="1" parent="1">
          <mxGeometry width="50" height="50" relative="1" as="geometry">
            <mxPoint x="240" y="1830" as="sourcePoint" />
            <mxPoint x="600" y="1830" as="targetPoint" />
          </mxGeometry>
        </mxCell>
        <mxCell id="Wks_n7H0P1M0t23U8N3x-274" value="3a.2 modificaTurniSelezionati(durataPrep?.durataRig?,luogo?, scadenza?, dataFine?)" style="edgeLabel;html=1;align=center;verticalAlign=middle;resizable=0;points=[];labelBackgroundColor=none;fontSize=9;" connectable="0" vertex="1" parent="Wks_n7H0P1M0t23U8N3x-273">
          <mxGeometry x="-0.2843" y="1" relative="1" as="geometry">
            <mxPoint x="57" y="-9" as="offset" />
          </mxGeometry>
        </mxCell>
        <mxCell id="Wks_n7H0P1M0t23U8N3x-275" value="ALT" style="shape=umlFrame;whiteSpace=wrap;html=1;pointerEvents=0;swimlaneFillColor=#eccbc1;fillColor=#f8cecc;strokeColor=#d27874;width=50;height=20;fontSize=10;fontStyle=1;opacity=60;" vertex="1" parent="1">
          <mxGeometry x="180" y="1850" width="480" height="120" as="geometry" />
        </mxCell>
        <mxCell id="Wks_n7H0P1M0t23U8N3x-276" value="" style="endArrow=classic;html=1;rounded=0;dashed=1;fillColor=#f8cecc;strokeColor=#f60c04;" edge="1" parent="1">
          <mxGeometry width="50" height="50" relative="1" as="geometry">
            <mxPoint x="600" y="1910" as="sourcePoint" />
            <mxPoint x="240" y="1910" as="targetPoint" />
          </mxGeometry>
        </mxCell>
        <mxCell id="Wks_n7H0P1M0t23U8N3x-277" value="(3a.2).1a.1 turno non modificabile per disponibilità" style="edgeLabel;html=1;align=center;verticalAlign=middle;resizable=0;points=[];labelBackgroundColor=none;fontColor=#FF0808;" connectable="0" vertex="1" parent="Wks_n7H0P1M0t23U8N3x-276">
          <mxGeometry x="0.0241" y="-1" relative="1" as="geometry">
            <mxPoint y="-9" as="offset" />
          </mxGeometry>
        </mxCell>
        <mxCell id="Wks_n7H0P1M0t23U8N3x-278" value="" style="endArrow=classic;html=1;rounded=0;dashed=1;" edge="1" parent="1">
          <mxGeometry width="50" height="50" relative="1" as="geometry">
            <mxPoint x="600" y="1870" as="sourcePoint" />
            <mxPoint x="240" y="1870" as="targetPoint" />
          </mxGeometry>
        </mxCell>
        <mxCell id="Wks_n7H0P1M0t23U8N3x-279" value="ok" style="edgeLabel;html=1;align=center;verticalAlign=middle;resizable=0;points=[];labelBackgroundColor=none;" connectable="0" vertex="1" parent="Wks_n7H0P1M0t23U8N3x-278">
          <mxGeometry x="0.0241" y="-1" relative="1" as="geometry">
            <mxPoint y="-9" as="offset" />
          </mxGeometry>
        </mxCell>
        <mxCell id="Wks_n7H0P1M0t23U8N3x-280" value="" style="endArrow=none;dashed=1;html=1;dashPattern=1 3;strokeWidth=2;rounded=0;exitX=-0.004;exitY=0.377;exitDx=0;exitDy=0;exitPerimeter=0;entryX=0.996;entryY=0.377;entryDx=0;entryDy=0;entryPerimeter=0;fillColor=#f8cecc;strokeColor=#f71f18;" edge="1" parent="1">
          <mxGeometry width="50" height="50" relative="1" as="geometry">
            <mxPoint x="180.00000000000037" y="1889.6000000000001" as="sourcePoint" />
            <mxPoint x="660.0000000000003" y="1889.6000000000001" as="targetPoint" />
          </mxGeometry>
        </mxCell>
        <mxCell id="Wks_n7H0P1M0t23U8N3x-281" value="" style="endArrow=none;dashed=1;html=1;dashPattern=1 3;strokeWidth=2;rounded=0;exitX=-0.004;exitY=0.377;exitDx=0;exitDy=0;exitPerimeter=0;entryX=0.996;entryY=0.377;entryDx=0;entryDy=0;entryPerimeter=0;fillColor=#f8cecc;strokeColor=#f71f18;" edge="1" parent="1">
          <mxGeometry width="50" height="50" relative="1" as="geometry">
            <mxPoint x="180.00000000000037" y="1930.0000000000002" as="sourcePoint" />
            <mxPoint x="660.0000000000003" y="1930.0000000000002" as="targetPoint" />
          </mxGeometry>
        </mxCell>
        <mxCell id="Wks_n7H0P1M0t23U8N3x-282" value="" style="endArrow=classic;html=1;rounded=0;dashed=1;fillColor=#f8cecc;strokeColor=#f60c04;" edge="1" parent="1" source="Wks_n7H0P1M0t23U8N3x-288">
          <mxGeometry width="50" height="50" relative="1" as="geometry">
            <mxPoint x="600" y="1950" as="sourcePoint" />
            <mxPoint x="240" y="1950" as="targetPoint" />
          </mxGeometry>
        </mxCell>
        <mxCell id="Wks_n7H0P1M0t23U8N3x-283" value="(3a.2).1b.1 scadenza maggiora del tempo rimanente" style="edgeLabel;html=1;align=center;verticalAlign=middle;resizable=0;points=[];labelBackgroundColor=none;fontColor=#FF0808;" connectable="0" vertex="1" parent="Wks_n7H0P1M0t23U8N3x-282">
          <mxGeometry x="0.0241" y="-1" relative="1" as="geometry">
            <mxPoint y="-9" as="offset" />
          </mxGeometry>
        </mxCell>
        <mxCell id="Wks_n7H0P1M0t23U8N3x-287" value="" style="shape=umlDestroy;html=1;fillColor=#f8cecc;strokeColor=#FF0808;" vertex="1" parent="1">
          <mxGeometry x="592" y="1900" width="15" height="15" as="geometry" />
        </mxCell>
        <mxCell id="Wks_n7H0P1M0t23U8N3x-288" value="" style="shape=umlDestroy;html=1;fillColor=#f8cecc;strokeColor=#FF0808;" vertex="1" parent="1">
          <mxGeometry x="592" y="1940" width="15" height="15" as="geometry" />
        </mxCell>
        <mxCell id="Wks_n7H0P1M0t23U8N3x-291" value="" style="endArrow=none;dashed=1;html=1;dashPattern=1 3;strokeWidth=2;rounded=0;exitX=-0.005;exitY=0.575;exitDx=0;exitDy=0;exitPerimeter=0;entryX=1.001;entryY=0.576;entryDx=0;entryDy=0;entryPerimeter=0;" edge="1" parent="1" source="Wks_n7H0P1M0t23U8N3x-236" target="Wks_n7H0P1M0t23U8N3x-236">
          <mxGeometry width="50" height="50" relative="1" as="geometry">
            <mxPoint x="240" y="1990" as="sourcePoint" />
            <mxPoint x="600" y="1990" as="targetPoint" />
          </mxGeometry>
        </mxCell>
        <mxCell id="Wks_n7H0P1M0t23U8N3x-292" value="" style="endArrow=classic;html=1;rounded=0;" edge="1" parent="1">
          <mxGeometry width="50" height="50" relative="1" as="geometry">
            <mxPoint x="240" y="2010" as="sourcePoint" />
            <mxPoint x="600" y="2010" as="targetPoint" />
          </mxGeometry>
        </mxCell>
        <mxCell id="Wks_n7H0P1M0t23U8N3x-293" value="(3a.2) a.1 eliminaTurniSelezionati()" style="edgeLabel;html=1;align=center;verticalAlign=middle;resizable=0;points=[];labelBackgroundColor=none;fontSize=9;" connectable="0" vertex="1" parent="Wks_n7H0P1M0t23U8N3x-292">
          <mxGeometry x="-0.2843" y="1" relative="1" as="geometry">
            <mxPoint x="57" y="-9" as="offset" />
          </mxGeometry>
        </mxCell>
        <mxCell id="Wks_n7H0P1M0t23U8N3x-294" value="ALT" style="shape=umlFrame;whiteSpace=wrap;html=1;pointerEvents=0;swimlaneFillColor=#eccbc1;fillColor=#f8cecc;strokeColor=#d27874;width=50;height=20;fontSize=10;fontStyle=1;opacity=80;" vertex="1" parent="1">
          <mxGeometry x="180" y="2024" width="480" height="80" as="geometry" />
        </mxCell>
        <mxCell id="Wks_n7H0P1M0t23U8N3x-295" value="" style="endArrow=classic;html=1;rounded=0;dashed=1;" edge="1" parent="1">
          <mxGeometry width="50" height="50" relative="1" as="geometry">
            <mxPoint x="600" y="2044" as="sourcePoint" />
            <mxPoint x="240" y="2044" as="targetPoint" />
          </mxGeometry>
        </mxCell>
        <mxCell id="Wks_n7H0P1M0t23U8N3x-296" value="ok" style="edgeLabel;html=1;align=center;verticalAlign=middle;resizable=0;points=[];labelBackgroundColor=none;" connectable="0" vertex="1" parent="Wks_n7H0P1M0t23U8N3x-295">
          <mxGeometry x="0.0241" y="-1" relative="1" as="geometry">
            <mxPoint y="-9" as="offset" />
          </mxGeometry>
        </mxCell>
        <mxCell id="Wks_n7H0P1M0t23U8N3x-297" value="" style="endArrow=none;dashed=1;html=1;dashPattern=1 3;strokeWidth=2;rounded=0;exitX=-0.004;exitY=0.377;exitDx=0;exitDy=0;exitPerimeter=0;entryX=0.996;entryY=0.377;entryDx=0;entryDy=0;entryPerimeter=0;fillColor=#f8cecc;strokeColor=#f71f18;" edge="1" parent="1">
          <mxGeometry width="50" height="50" relative="1" as="geometry">
            <mxPoint x="180.00000000000037" y="2063.6400000000003" as="sourcePoint" />
            <mxPoint x="660.0000000000003" y="2063.6400000000003" as="targetPoint" />
          </mxGeometry>
        </mxCell>
        <mxCell id="Wks_n7H0P1M0t23U8N3x-298" value="" style="endArrow=classic;html=1;rounded=0;dashed=1;fillColor=#f8cecc;strokeColor=#f60c04;" edge="1" parent="1">
          <mxGeometry width="50" height="50" relative="1" as="geometry">
            <mxPoint x="590" y="2084" as="sourcePoint" />
            <mxPoint x="240" y="2084" as="targetPoint" />
          </mxGeometry>
        </mxCell>
        <mxCell id="Wks_n7H0P1M0t23U8N3x-299" value="((3a.2)a.1).1a.1 turno non eliminabile per disponibilità" style="edgeLabel;html=1;align=center;verticalAlign=middle;resizable=0;points=[];labelBackgroundColor=none;fontColor=#FF0808;" connectable="0" vertex="1" parent="Wks_n7H0P1M0t23U8N3x-298">
          <mxGeometry x="0.0241" y="-1" relative="1" as="geometry">
            <mxPoint y="-9" as="offset" />
          </mxGeometry>
        </mxCell>
        <mxCell id="Wks_n7H0P1M0t23U8N3x-300" value="" style="shape=umlDestroy;html=1;fillColor=#f8cecc;strokeColor=#FF0808;" vertex="1" parent="1">
          <mxGeometry x="592" y="2076" width="15" height="15" as="geometry" />
        </mxCell>
        <mxCell id="7QjkbwkYLUTSWp5Ibt6S-4" value="" style="endArrow=none;html=1;rounded=0;dashed=1;dashPattern=12 12;" edge="1" parent="1">
          <mxGeometry width="50" height="50" relative="1" as="geometry">
            <mxPoint x="240" y="2200" as="sourcePoint" />
            <mxPoint x="240" y="90" as="targetPoint" />
          </mxGeometry>
        </mxCell>
        <mxCell id="Wks_n7H0P1M0t23U8N3x-20" value="" style="endArrow=none;html=1;rounded=0;dashed=1;dashPattern=12 12;" edge="1" parent="1" target="Wks_n7H0P1M0t23U8N3x-19">
          <mxGeometry width="50" height="50" relative="1" as="geometry">
            <mxPoint x="598" y="2200" as="sourcePoint" />
            <mxPoint x="600" y="582" as="targetPoint" />
          </mxGeometry>
        </mxCell>
      </root>
    </mxGraphModel>
  </diagram>
</mxfile>
